PathFileType	4	(X/Y/Z)	E:/New_biomech_experiments/Elbow Flexion/Shreyas_25_06_24_elbow_flexion/Session 2024-06-26/Shreyas_ElbFlex_pp_t02_26_06_24.trc	
DataRate	CameraRate	NumFrames	NumMarkers	Units	OrigDataRate	OrigDataStartFrame	OrigNumFrames	
120.00	120.00	8	19	m	120.00	3625	4832	
Frame#	Time	LFHD			LBHD			T10			C7			RBHD			PRSHO			RSHO			STRN			RFHD			CLAV			RWRA			RWRB			ARSHO			MRELB			RFRM			RHAND			RELB			RUPA			MRHAND			
		X1	Y1	Z1	X2	Y2	Z2	X3	Y3	Z3	X4	Y4	Z4	X5	Y5	Z5	X6	Y6	Z6	X7	Y7	Z7	X8	Y8	Z8	X9	Y9	Z9	X10	Y10	Z10	X11	Y11	Z11	X12	Y12	Z12	X13	Y13	Z13	X14	Y14	Z14	X15	Y15	Z15	X16	Y16	Z16	X17	Y17	Z17	X18	Y18	Z18	X19	Y19	Z19	

3625	30.200	0.09104	1.83829	-0.05564	-0.01542	1.73836	-0.07486	-0.07739	1.34022	-0.02930	-0.04765	1.55046	-0.01697	-0.03059	1.75833	0.06161	-0.08311	1.45422	0.11031	0.03458	1.50486	0.19698	0.18112	1.34054	-0.01145	0.07327	1.82368	0.07144	0.14686	1.46586	-0.00604	0.16230	1.36536	0.14006	0.20138	1.35437	0.23346	0.12185	1.45774	0.10448	0.03505	1.15084	0.14781	0.10579	1.27629	0.24816	0.25410	1.46330	0.12446	0.00543	1.19739	0.26643	0.02120	1.31343	0.24151	0.27116	1.41696	0.23450 
3626	30.208	0.09111	1.83828	-0.05570	-0.01537	1.73837	-0.07489	-0.07740	1.34025	-0.02937	-0.04761	1.55048	-0.01703	-0.03049	1.75832	0.06159	-0.08311	1.45425	0.11024	0.03459	1.50487	0.19692	0.18112	1.34051	-0.01148	0.07336	1.82366	0.07138	0.14689	1.46584	-0.00606	0.16225	1.36544	0.14016	0.20137	1.35442	0.23337	0.12185	1.45772	0.10444	0.03505	1.15085	0.14777	0.10580	1.27631	0.24809	0.25398	1.46339	0.12435	0.00544	1.19738	0.26639	0.02119	1.31344	0.24144	0.27113	1.41700	0.23434 
3627	30.217	0.09117	1.83827	-0.05576	-0.01532	1.73838	-0.07491	-0.07741	1.34028	-0.02943	-0.04757	1.55050	-0.01709	-0.03039	1.75832	0.06158	-0.08311	1.45427	0.11018	0.03459	1.50487	0.19687	0.18111	1.34047	-0.01151	0.07346	1.82364	0.07133	0.14690	1.46582	-0.00609	0.16219	1.36551	0.14024	0.20136	1.35448	0.23327	0.12184	1.45770	0.10439	0.03505	1.15086	0.14773	0.10581	1.27632	0.24802	0.25385	1.46349	0.12424	0.00546	1.19738	0.26636	0.02118	1.31344	0.24139	0.27110	1.41704	0.23418 
3628	30.225	0.09123	1.83826	-0.05582	-0.01529	1.73839	-0.07492	-0.07742	1.34030	-0.02950	-0.04754	1.55051	-0.01715	-0.03030	1.75832	0.06157	-0.08312	1.45429	0.11011	0.03459	1.50488	0.19683	0.18109	1.34045	-0.01153	0.07355	1.82362	0.07127	0.14691	1.46580	-0.00612	0.16213	1.36558	0.14028	0.20135	1.35456	0.23318	0.12182	1.45768	0.10435	0.03505	1.15087	0.14770	0.10582	1.27633	0.24796	0.25370	1.46361	0.12413	0.00548	1.19736	0.26633	0.02117	1.31345	0.24133	0.27107	1.41709	0.23402 
3629	30.233	0.09127	1.83824	-0.05589	-0.01527	1.73839	-0.07494	-0.07743	1.34031	-0.02956	-0.04751	1.55051	-0.01720	-0.03022	1.75833	0.06156	-0.08313	1.45431	0.11005	0.03457	1.50487	0.19678	0.18108	1.34042	-0.01155	0.07364	1.82361	0.07122	0.14691	1.46578	-0.00614	0.16205	1.36565	0.14030	0.20133	1.35465	0.23309	0.12180	1.45765	0.10431	0.03506	1.15088	0.14767	0.10583	1.27634	0.24790	0.25353	1.46374	0.12401	0.00551	1.19735	0.26631	0.02116	1.31346	0.24128	0.27105	1.41715	0.23386 
3630	30.242	0.09130	1.83822	-0.05596	-0.01526	1.73839	-0.07496	-0.07744	1.34032	-0.02962	-0.04749	1.55049	-0.01723	-0.03015	1.75833	0.06155	-0.08315	1.45432	0.10999	0.03455	1.50487	0.19672	0.18106	1.34039	-0.01157	0.07372	1.82359	0.07116	0.14690	1.46576	-0.00617	0.16198	1.36571	0.14030	0.20131	1.35473	0.23299	0.12177	1.45763	0.10427	0.03508	1.15088	0.14764	0.10585	1.27635	0.24784	0.25337	1.46387	0.12390	0.00554	1.19733	0.26629	0.02116	1.31346	0.24124	0.27102	1.41722	0.23370 
3631	30.250	0.09133	1.83820	-0.05603	-0.01525	1.73839	-0.07497	-0.07745	1.34033	-0.02967	-0.04747	1.55048	-0.01726	-0.03009	1.75832	0.06153	-0.08317	1.45433	0.10994	0.03453	1.50486	0.19667	0.18104	1.34037	-0.01159	0.07380	1.82359	0.07111	0.14689	1.46574	-0.00619	0.16190	1.36577	0.14028	0.20130	1.35480	0.23288	0.12173	1.45760	0.10424	0.03510	1.15089	0.14761	0.10586	1.27637	0.24779	0.25319	1.46401	0.12379	0.00557	1.19731	0.26627	0.02115	1.31346	0.24121	0.27099	1.41729	0.23354 
3632	30.258	0.09136	1.83817	-0.05609	-0.01523	1.73840	-0.07497	-0.07746	1.34033	-0.02972	-0.04747	1.55046	-0.01730	-0.03005	1.75832	0.06151	-0.08320	1.45434	0.10989	0.03449	1.50484	0.19660	0.18103	1.34035	-0.01161	0.07386	1.82358	0.07105	0.14688	1.46572	-0.00622	0.16182	1.36583	0.14026	0.20130	1.35486	0.23278	0.12169	1.45757	0.10420	0.03514	1.15089	0.14759	0.10588	1.27638	0.24774	0.25302	1.46414	0.12368	0.00561	1.19728	0.26625	0.02116	1.31346	0.24119	0.27097	1.41736	0.23338 
